<?xml version="1.0" encoding="iso-8859-1"?>
<!-- Generator: Adobe Illustrator 16.0.0, SVG Export Plug-In . SVG Version: 6.00 Build 0)  -->
<!DOCTYPE svg PUBLIC "-//W3C//DTD SVG 1.1//EN" "http://www.w3.org/Graphics/SVG/1.1/DTD/svg11.dtd">
<svg version="1.1" id="Capa_1" xmlns="http://www.w3.org/2000/svg" xmlns:xlink="http://www.w3.org/1999/xlink" x="0px" y="0px"
	 width="48.401px" height="48.401px" viewBox="0 0 48.401 48.401" style="enable-background:new 0 0 48.401 48.401;"
	 xml:space="preserve">
<g>
	<g>
		<path d="M44.802,7.307c1.025-1.025,1.026-2.689,0-3.715c-1.026-1.027-2.688-1.026-3.716-0.001
			c-4.788-4.788-12.551-4.787-17.339,0.001L12.071,15.269c-1.026,1.026-2.155,1.418-4.423,0.706
			c-1.386-0.435-3.397-0.318-4.424,0.708c-1.025,1.025-2.533,2.534-2.533,2.534l0.013,0.011c-2.217,2.469,1.017,9.554,7.388,16.633
			c0.211-1.08,0.646-2.123,1.292-3.063C4.532,27.136,2.9,22.782,2.98,21.348c0.018,0,0.034-0.001,0.054-0.001
			c2.554,0,8.553,3.284,14.641,9.372c0.358,0.357,0.694,0.709,1.028,1.061c-0.809-0.362-1.675-0.55-2.545-0.55
			c-1.592,0-3.185,0.606-4.398,1.821c-0.396,0.396-0.722,0.837-0.99,1.302c-0.001-0.001-0.001-0.002-0.002-0.002
			c-0.006,0.011-0.009,0.021-0.015,0.032c-0.29,0.511-0.501,1.053-0.635,1.61c-0.008,0.031-0.017,0.062-0.023,0.094
			c-0.063,0.279-0.107,0.562-0.132,0.847c0,0.007,0,0.013-0.001,0.019c-0.022,0.274-0.023,0.551-0.008,0.825
			c0.001,0.021-0.002,0.041-0.001,0.062c0.001,0.001,0.003,0.003,0.004,0.004c0.092,1.458,0.688,2.892,1.803,4.006
			c1.214,1.214,2.807,1.822,4.398,1.822c0.155,0,0.313-0.012,0.469-0.021l0,0h0.001c0.296-0.021,0.59-0.067,0.881-0.132
			c0.008-0.002,0.017-0.004,0.025-0.006c0.581-0.131,1.146-0.348,1.677-0.646c0.004-0.002,0.008-0.005,0.013-0.007
			c0.477-0.271,0.928-0.603,1.332-1.009c1.653-1.652,2.179-4.005,1.581-6.104c3.717,4.776,5,8.374,4.928,9.654
			c-0.017,0-0.032,0.001-0.053,0.001c-1.149,0-3.001-0.673-5.241-1.959c-0.842,0.791-1.821,1.384-2.886,1.758
			c3.206,2.042,6.09,3.201,8.126,3.201c0.902,0,1.632-0.234,2.158-0.708l0.008,0.013c0,0,1.507-1.507,2.534-2.533
			c1.024-1.025,0.757-2.974,0.708-4.424c-0.052-1.521-0.319-3.396,0.707-4.422l11.678-11.678
			C49.59,19.857,49.591,12.095,44.802,7.307z"/>
	</g>
</g>
<g>
</g>
<g>
</g>
<g>
</g>
<g>
</g>
<g>
</g>
<g>
</g>
<g>
</g>
<g>
</g>
<g>
</g>
<g>
</g>
<g>
</g>
<g>
</g>
<g>
</g>
<g>
</g>
<g>
</g>
</svg>
