<?xml version="1.0" encoding="iso-8859-1"?>
<!-- Generator: Adobe Illustrator 16.0.0, SVG Export Plug-In . SVG Version: 6.00 Build 0)  -->
<!DOCTYPE svg PUBLIC "-//W3C//DTD SVG 1.1//EN" "http://www.w3.org/Graphics/SVG/1.1/DTD/svg11.dtd">
<svg version="1.1" id="Capa_1" xmlns="http://www.w3.org/2000/svg" xmlns:xlink="http://www.w3.org/1999/xlink" x="0px" y="0px"
	 width="49.654px" height="49.655px" viewBox="0 0 49.654 49.655" style="enable-background:new 0 0 49.654 49.655;"
	 xml:space="preserve">
<g>
	<g>
		<g>
			<path d="M17.026,32.161L4.248,10.953C1.567,14.917,0,19.691,0,24.827c0,2.552,0.388,5.016,1.107,7.334H17.026z"/>
			<path d="M22.395,14.3h24.908C44.104,7.497,37.907,2.375,30.422,0.645L22.395,14.3z"/>
			<path d="M14.399,21.986L27.25,0.121C26.452,0.042,25.645,0,24.826,0C17.424,0,10.773,3.26,6.221,8.416L14.399,21.986z"/>
			<path d="M19.576,48.872l7.86-13.711H2.262c3.302,7.182,9.929,12.522,17.9,14.047L19.576,48.872z"/>
			<path d="M32.588,17.3l12.549,21.776c2.843-4.037,4.518-8.95,4.518-14.25c0-2.623-0.412-5.151-1.17-7.526H32.588z"/>
			<path d="M35.146,27.75L22.645,49.551c0.719,0.063,1.446,0.103,2.181,0.103c7.233,0,13.753-3.111,18.295-8.064L35.146,27.75z"/>
		</g>
	</g>
</g>
<g>
</g>
<g>
</g>
<g>
</g>
<g>
</g>
<g>
</g>
<g>
</g>
<g>
</g>
<g>
</g>
<g>
</g>
<g>
</g>
<g>
</g>
<g>
</g>
<g>
</g>
<g>
</g>
<g>
</g>
</svg>
