<?xml version="1.0" encoding="iso-8859-1"?>
<!-- Generator: Adobe Illustrator 16.0.0, SVG Export Plug-In . SVG Version: 6.00 Build 0)  -->
<!DOCTYPE svg PUBLIC "-//W3C//DTD SVG 1.1//EN" "http://www.w3.org/Graphics/SVG/1.1/DTD/svg11.dtd">
<svg version="1.1" id="Capa_1" xmlns="http://www.w3.org/2000/svg" xmlns:xlink="http://www.w3.org/1999/xlink" x="0px" y="0px"
	 width="50.494px" height="50.495px" viewBox="0 0 50.494 50.495" style="enable-background:new 0 0 50.494 50.495;"
	 xml:space="preserve">
<g>
	<g>
		<g>
			<path d="M21.66,25.249c0,2.189,1.777,3.966,3.966,3.966c1.538,0,2.856-0.885,3.515-2.163l0.011,0.01L36.391,14l-12.708,7.794
				l0.012,0.012C22.486,22.487,21.66,23.765,21.66,25.249z"/>
			<path d="M41.604,6.351c-4.062-3.552-9.313-5.82-15.313-6.159v6.027c5,0.318,7.945,1.906,10.904,4.384L41.604,6.351z"/>
			<path d="M44.436,23.37h6.021c-0.404-6-2.751-10.93-6.396-14.97l-4.26,4.233C42.367,15.573,44.055,19.37,44.436,23.37z"/>
			<path d="M44.463,26.37c-0.637,10-8.922,17.933-19.042,17.933C14.886,44.302,6,35.757,6,25.223C6,15.195,14.289,6.99,23.289,6.22
				V0.193C10.289,0.972,0,11.91,0,25.249c0,13.844,11.42,25.053,25.263,25.053c13.432,0,24.59-10.933,25.231-23.933H44.463z"/>
		</g>
	</g>
</g>
<g>
</g>
<g>
</g>
<g>
</g>
<g>
</g>
<g>
</g>
<g>
</g>
<g>
</g>
<g>
</g>
<g>
</g>
<g>
</g>
<g>
</g>
<g>
</g>
<g>
</g>
<g>
</g>
<g>
</g>
</svg>
