<?xml version="1.0" encoding="iso-8859-1"?>
<!-- Generator: Adobe Illustrator 16.0.0, SVG Export Plug-In . SVG Version: 6.00 Build 0)  -->
<!DOCTYPE svg PUBLIC "-//W3C//DTD SVG 1.1//EN" "http://www.w3.org/Graphics/SVG/1.1/DTD/svg11.dtd">
<svg version="1.1" id="Capa_1" xmlns="http://www.w3.org/2000/svg" xmlns:xlink="http://www.w3.org/1999/xlink" x="0px" y="0px"
	 width="52.54px" height="52.54px" viewBox="0 0 52.54 52.54" style="enable-background:new 0 0 52.54 52.54;" xml:space="preserve"
	>
<g>
	<g>
		<g>
			<path d="M17.841,8.726h16.857c0.554,0,1-0.447,1-1V4.565h-4.429V2c0-1.104-0.896-2-2-2h-6c-1.104,0-2,0.896-2,2v2.565h-4.428
				v3.161C16.841,8.279,17.288,8.726,17.841,8.726z"/>
			<path d="M37.698,4.565v3.161c0,1.654-1.346,3-3,3H17.842c-1.654,0-3-1.346-3-3V4.565H6.27V48.54c0,2.209,1.791,4,4,4h32
				c2.209,0,4-1.791,4-4V4.565H37.698z M41.269,47.54h-30V15.199h30V47.54z"/>
			<rect x="16.697" y="20.308" width="19.117" height="4"/>
			<rect x="16.791" y="28.402" width="19.117" height="4"/>
			<rect x="16.885" y="36.499" width="7.752" height="4"/>
		</g>
	</g>
</g>
<g>
</g>
<g>
</g>
<g>
</g>
<g>
</g>
<g>
</g>
<g>
</g>
<g>
</g>
<g>
</g>
<g>
</g>
<g>
</g>
<g>
</g>
<g>
</g>
<g>
</g>
<g>
</g>
<g>
</g>
</svg>
