<?xml version="1.0" encoding="iso-8859-1"?>
<!-- Generator: Adobe Illustrator 16.0.0, SVG Export Plug-In . SVG Version: 6.00 Build 0)  -->
<!DOCTYPE svg PUBLIC "-//W3C//DTD SVG 1.1//EN" "http://www.w3.org/Graphics/SVG/1.1/DTD/svg11.dtd">
<svg version="1.1" id="Capa_1" xmlns="http://www.w3.org/2000/svg" xmlns:xlink="http://www.w3.org/1999/xlink" x="0px" y="0px"
	 width="49.652px" height="49.652px" viewBox="0 0 49.652 49.652" style="enable-background:new 0 0 49.652 49.652;"
	 xml:space="preserve">
<g>
	<g>
		<g>
			<circle cx="24.826" cy="24.825" r="3.529"/>
			<path d="M42.381,7.271C37.693,2.582,31.458,0,24.826,0C18.195,0,11.96,2.583,7.271,7.271c-9.68,9.68-9.68,25.43,0,35.11
				c4.689,4.688,10.923,7.271,17.555,7.271c6.632,0,12.867-2.582,17.555-7.271C52.061,32.701,52.061,16.951,42.381,7.271z
				 M24.86,45.002l0.039-12.587c-1.967,0.019-3.941-0.719-5.442-2.22c-2.965-2.965-2.964-7.772,0-10.737
				c0.022-0.022,0.047-0.04,0.069-0.062l-8.935-8.936c4.059-4.072,9.234-6.027,14.363-5.91l-0.039,12.689
				c1.915,0.022,3.82,0.759,5.28,2.219c2.942,2.942,2.96,7.699,0.063,10.668l8.967,8.968C35.166,43.164,29.99,45.119,24.86,45.002z"
				/>
		</g>
	</g>
</g>
<g>
</g>
<g>
</g>
<g>
</g>
<g>
</g>
<g>
</g>
<g>
</g>
<g>
</g>
<g>
</g>
<g>
</g>
<g>
</g>
<g>
</g>
<g>
</g>
<g>
</g>
<g>
</g>
<g>
</g>
</svg>
