<?xml version="1.0" encoding="iso-8859-1"?>
<!-- Generator: Adobe Illustrator 16.0.0, SVG Export Plug-In . SVG Version: 6.00 Build 0)  -->
<!DOCTYPE svg PUBLIC "-//W3C//DTD SVG 1.1//EN" "http://www.w3.org/Graphics/SVG/1.1/DTD/svg11.dtd">
<svg version="1.1" id="Capa_1" xmlns="http://www.w3.org/2000/svg" xmlns:xlink="http://www.w3.org/1999/xlink" x="0px" y="0px"
	 width="52.62px" height="52.62px" viewBox="0 0 52.62 52.62" style="enable-background:new 0 0 52.62 52.62;" xml:space="preserve"
	>
<g>
	<g>
		<g>
			<path d="M49.829,4.313H21.933c-1.54,0-2.789,1.249-2.789,2.789v5.995h12.268c2.2,0,4,1.8,4,4v20.689h6.049
				c0.771,0,1.163-0.58,0.877-1.295l-1.993-4.981h10.183c1.155,0,2.093-0.937,2.093-2.095V7.104
				C52.619,5.562,51.37,4.313,49.829,4.313z"/>
			<path d="M30.685,14.833H2.789C1.249,14.833,0,16.082,0,17.622v22.316c0,1.156,0.936,2.093,2.092,2.093h10.182l-1.992,4.981
				c-0.285,0.715,0.106,1.295,0.877,1.295h11.158c0.771,0,1.163-0.58,0.877-1.295l-1.993-4.981h10.182
				c1.155,0,2.092-0.937,2.092-2.093V17.622C33.474,16.082,32.226,14.833,30.685,14.833z M16.737,40.236
				c-0.818,0-1.481-0.663-1.481-1.48s0.663-1.48,1.481-1.48c0.818,0,1.482,0.663,1.482,1.48S17.555,40.236,16.737,40.236z
				 M29.474,35.058H3.999V18.833h25.475V35.058z"/>
		</g>
	</g>
</g>
<g>
</g>
<g>
</g>
<g>
</g>
<g>
</g>
<g>
</g>
<g>
</g>
<g>
</g>
<g>
</g>
<g>
</g>
<g>
</g>
<g>
</g>
<g>
</g>
<g>
</g>
<g>
</g>
<g>
</g>
</svg>
