<?xml version="1.0" encoding="iso-8859-1"?>
<!-- Generator: Adobe Illustrator 16.0.0, SVG Export Plug-In . SVG Version: 6.00 Build 0)  -->
<!DOCTYPE svg PUBLIC "-//W3C//DTD SVG 1.1//EN" "http://www.w3.org/Graphics/SVG/1.1/DTD/svg11.dtd">
<svg version="1.1" id="Capa_1" xmlns="http://www.w3.org/2000/svg" xmlns:xlink="http://www.w3.org/1999/xlink" x="0px" y="0px"
	 width="48.155px" height="48.155px" viewBox="0 0 48.155 48.155" style="enable-background:new 0 0 48.155 48.155;"
	 xml:space="preserve">
<g>
	<g>
		<path d="M36.851,24.656l9.503-9.503l-9.503-9.504H24.078V1.051C24.078,0.473,23.605,0,23.027,0h-3.785
			c-0.578,0-1.051,0.473-1.051,1.051V5.65H2.301c-0.276,0-0.5,0.224-0.5,0.5v18.007c0,0.276,0.224,0.5,0.5,0.5h15.89v3.729h-5.879
			L7.56,33.138l4.752,4.752h5.879v9.214c0,0.577,0.473,1.052,1.051,1.052h3.785c0.578,0,1.051-0.475,1.051-1.052V37.89h7.258
			c0.277,0,0.5-0.225,0.5-0.5v-8.504c0-0.275-0.223-0.5-0.5-0.5h-7.258v-3.729L36.851,24.656L36.851,24.656z"/>
	</g>
</g>
<g>
</g>
<g>
</g>
<g>
</g>
<g>
</g>
<g>
</g>
<g>
</g>
<g>
</g>
<g>
</g>
<g>
</g>
<g>
</g>
<g>
</g>
<g>
</g>
<g>
</g>
<g>
</g>
<g>
</g>
</svg>
