<?xml version="1.0" encoding="iso-8859-1"?>
<!-- Generator: Adobe Illustrator 16.0.0, SVG Export Plug-In . SVG Version: 6.00 Build 0)  -->
<!DOCTYPE svg PUBLIC "-//W3C//DTD SVG 1.1//EN" "http://www.w3.org/Graphics/SVG/1.1/DTD/svg11.dtd">
<svg version="1.1" id="Capa_1" xmlns="http://www.w3.org/2000/svg" xmlns:xlink="http://www.w3.org/1999/xlink" x="0px" y="0px"
	 width="49.652px" height="49.652px" viewBox="0 0 49.652 49.652" style="enable-background:new 0 0 49.652 49.652;"
	 xml:space="preserve">
<g>
	<g>
		<g>
			<path d="M24.089,20.454c-2.305-4.097-4.769-7.435-4.945-7.674c-3.714,1.755-6.485,5.176-7.351,9.301
				C12.144,22.087,17.694,22.153,24.089,20.454z"/>
			<path d="M21.636,11.894c-0.014,0.006-0.028,0.009-0.042,0.012c0.025-0.005,0.04-0.009,0.04-0.009L21.636,11.894z"/>
			<path d="M33.622,14.831c-2.347-2.066-5.423-3.322-8.796-3.322c-1.082,0-2.132,0.132-3.139,0.375
				c0.2,0.264,2.701,3.587,4.979,7.771C31.692,17.769,33.59,14.883,33.622,14.831z"/>
			<path d="M27.094,27.006c-7.864,2.74-10.427,8.267-10.45,8.315c2.258,1.764,5.095,2.825,8.182,2.825
				c1.846,0,3.602-0.378,5.2-1.058c-0.197-1.164-0.973-5.242-2.846-10.11C27.151,26.986,27.122,26.995,27.094,27.006z"/>
			<path d="M25.748,24.93c0.174-0.057,0.35-0.11,0.523-0.159c-0.332-0.759-0.697-1.517-1.08-2.265
				c-6.856,2.053-13.438,1.902-13.672,1.898c-0.005,0.14-0.011,0.278-0.011,0.42c0,3.422,1.291,6.541,3.411,8.901l-0.005-0.008
				C14.915,33.721,18.56,27.253,25.748,24.93z"/>
			<path d="M24.826,0C11.137,0,0,11.137,0,24.826c0,13.688,11.137,24.826,24.826,24.826c13.688,0,24.826-11.138,24.826-24.826
				C49.652,11.137,38.516,0,24.826,0z M40.104,27.969c-0.204,1.002-0.512,1.987-0.908,2.931c-0.393,0.924-0.875,1.815-1.438,2.649
				c-0.558,0.824-1.199,1.602-1.901,2.308c-0.705,0.704-1.48,1.344-2.308,1.901c-0.834,0.563-1.727,1.047-2.649,1.438
				c-0.941,0.397-1.929,0.704-2.931,0.91c-1.026,0.211-2.084,0.315-3.141,0.315c-1.058,0-2.113-0.104-3.141-0.315
				c-1.002-0.206-1.989-0.513-2.931-0.91c-0.925-0.392-1.816-0.874-2.65-1.438c-0.825-0.56-1.602-1.197-2.306-1.901
				c-0.706-0.706-1.346-1.48-1.903-2.308c-0.563-0.834-1.047-1.728-1.438-2.649c-0.397-0.941-0.705-1.929-0.91-2.931
				c-0.21-1.025-0.316-2.084-0.316-3.144c0-1.057,0.106-2.113,0.316-3.139c0.205-1.002,0.512-1.988,0.911-2.932
				c0.391-0.925,0.874-1.815,1.436-2.647c0.559-0.825,1.198-1.603,1.903-2.307c0.705-0.706,1.48-1.346,2.307-1.904
				c0.834-0.563,1.726-1.046,2.649-1.438c0.942-0.396,1.93-0.705,2.931-0.908c1.028-0.211,2.084-0.318,3.141-0.318
				c1.058,0,2.114,0.107,3.142,0.318c1.002,0.203,1.987,0.511,2.931,0.908c0.926,0.392,1.815,0.873,2.649,1.438
				c0.824,0.559,1.603,1.199,2.308,1.904c0.704,0.705,1.345,1.481,1.901,2.307c0.563,0.833,1.047,1.724,1.438,2.647
				c0.396,0.943,0.705,1.93,0.909,2.932c0.211,1.025,0.315,2.082,0.315,3.139C40.42,25.885,40.314,26.94,40.104,27.969z"/>
			<path d="M29.676,26.36c1.748,4.8,2.457,8.709,2.592,9.514c2.992-2.021,5.115-5.222,5.709-8.933
				C37.701,26.85,33.975,25.674,29.676,26.36z"/>
			<path d="M27.689,21.637c0.312,0.635,0.608,1.28,0.887,1.932c0.1,0.23,0.192,0.46,0.287,0.688
				c4.576-0.574,9.084,0.396,9.274,0.437c-0.028-3.161-1.16-6.059-3.026-8.326C35.088,16.403,32.951,19.491,27.689,21.637z"/>
		</g>
	</g>
</g>
<g>
</g>
<g>
</g>
<g>
</g>
<g>
</g>
<g>
</g>
<g>
</g>
<g>
</g>
<g>
</g>
<g>
</g>
<g>
</g>
<g>
</g>
<g>
</g>
<g>
</g>
<g>
</g>
<g>
</g>
</svg>
