<?xml version="1.0" encoding="iso-8859-1"?>
<!-- Generator: Adobe Illustrator 16.0.0, SVG Export Plug-In . SVG Version: 6.00 Build 0)  -->
<!DOCTYPE svg PUBLIC "-//W3C//DTD SVG 1.1//EN" "http://www.w3.org/Graphics/SVG/1.1/DTD/svg11.dtd">
<svg version="1.1" id="Capa_1" xmlns="http://www.w3.org/2000/svg" xmlns:xlink="http://www.w3.org/1999/xlink" x="0px" y="0px"
	 width="50.613px" height="50.613px" viewBox="0 0 50.613 50.613" style="enable-background:new 0 0 50.613 50.613;"
	 xml:space="preserve">
<g>
	<g>
		<g>
			<path d="M49.569,11.145H20.055c-0.961,0-1.508,0.743-1.223,1.661l4.669,13.677c0.23,0.738,1.044,1.336,1.817,1.336h19.35
				c0.773,0,1.586-0.598,1.814-1.336l4.069-14C50.783,11.744,50.344,11.145,49.569,11.145z"/>
			<circle cx="22.724" cy="43.575" r="4.415"/>
			<circle cx="41.406" cy="43.63" r="4.415"/>
			<path d="M46.707,32.312H20.886L10.549,2.568H2.5c-1.381,0-2.5,1.119-2.5,2.5s1.119,2.5,2.5,2.5h4.493L17.33,37.312h29.377
				c1.381,0,2.5-1.119,2.5-2.5S48.088,32.312,46.707,32.312z"/>
		</g>
	</g>
</g>
<g>
</g>
<g>
</g>
<g>
</g>
<g>
</g>
<g>
</g>
<g>
</g>
<g>
</g>
<g>
</g>
<g>
</g>
<g>
</g>
<g>
</g>
<g>
</g>
<g>
</g>
<g>
</g>
<g>
</g>
</svg>
