<?xml version="1.0" encoding="iso-8859-1"?>
<!-- Generator: Adobe Illustrator 16.0.0, SVG Export Plug-In . SVG Version: 6.00 Build 0)  -->
<!DOCTYPE svg PUBLIC "-//W3C//DTD SVG 1.1//EN" "http://www.w3.org/Graphics/SVG/1.1/DTD/svg11.dtd">
<svg version="1.1" id="Capa_1" xmlns="http://www.w3.org/2000/svg" xmlns:xlink="http://www.w3.org/1999/xlink" x="0px" y="0px"
	 width="49.654px" height="49.654px" viewBox="0 0 49.654 49.654" style="enable-background:new 0 0 49.654 49.654;"
	 xml:space="preserve">
<g>
	<g>
		<g>
			<path d="M24.827,0C11.138,0,0.001,11.138,0.001,24.827c0,13.688,11.137,24.827,24.826,24.827
				c13.688,0,24.826-11.14,24.826-24.827C49.653,11.138,38.517,0,24.827,0z M24.827,35.891c-11.6,0-17.855-10.825-17.855-10.825
				s6.255-10.828,17.855-10.828c11.602,0,17.854,10.828,17.854,10.828S36.429,35.891,24.827,35.891z"/>
			<path d="M24.827,15.832c-5.091,0-9.232,4.142-9.232,9.232c0,5.09,4.142,9.229,9.232,9.229c5.09,0,9.231-4.142,9.231-9.229
				C34.06,19.974,29.918,15.832,24.827,15.832z M24.827,31.296c-3.437,0-6.232-2.796-6.232-6.23c0-3.438,2.796-6.231,6.232-6.231
				c3.436,0,6.231,2.796,6.231,6.231C31.059,28.5,28.265,31.296,24.827,31.296z"/>
			<path d="M27.124,25.441c-1.229,0-2.225-0.997-2.225-2.228c0-1.103,0.809-2.015,1.868-2.188c-0.59-0.284-1.24-0.457-1.938-0.457
				c-2.48,0-4.494,2.017-4.494,4.496c0,2.481,2.014,4.493,4.494,4.493c2.479,0,4.494-2.012,4.494-4.493
				c0-0.358-0.054-0.703-0.134-1.037C28.864,24.855,28.063,25.441,27.124,25.441z"/>
		</g>
	</g>
</g>
<g>
</g>
<g>
</g>
<g>
</g>
<g>
</g>
<g>
</g>
<g>
</g>
<g>
</g>
<g>
</g>
<g>
</g>
<g>
</g>
<g>
</g>
<g>
</g>
<g>
</g>
<g>
</g>
<g>
</g>
</svg>
