<?xml version="1.0" encoding="iso-8859-1"?>
<!-- Generator: Adobe Illustrator 16.0.0, SVG Export Plug-In . SVG Version: 6.00 Build 0)  -->
<!DOCTYPE svg PUBLIC "-//W3C//DTD SVG 1.1//EN" "http://www.w3.org/Graphics/SVG/1.1/DTD/svg11.dtd">
<svg version="1.1" id="Capa_1" xmlns="http://www.w3.org/2000/svg" xmlns:xlink="http://www.w3.org/1999/xlink" x="0px" y="0px"
	 width="48.001px" height="48.001px" viewBox="0 0 48.001 48.001" style="enable-background:new 0 0 48.001 48.001;"
	 xml:space="preserve">
<g>
	<g>
		<g>
			<rect x="13.685" y="12.034" width="20.621" height="3"/>
			<rect x="13.685" y="19.224" width="20.621" height="3"/>
			<path d="M43.015,0h-38c-0.553,0-1,0.447-1,1v33.323c-0.011,0.096-0.029,0.189-0.029,0.29c0,4.912,3.681,8.972,8.428,9.589
				l-0.029,0.021l29.631,3.777c1.104,0,2-0.895,2-2V1C44.015,0.447,43.566,0,43.015,0z M39.015,42.207l-19.84-11.635
				c-0.466-0.297-0.844-0.09-0.844,0.464v3.422v-0.015c-0.004,0.058,0,0.11,0,0.17c0,2.58-2.087,4.679-4.667,4.679
				c-2.58,0-4.649-1.929-4.649-4.508c0-0.091,0.009-0.22,0-0.309v-0.129V5h30V42.207L39.015,42.207z"/>
		</g>
	</g>
</g>
<g>
</g>
<g>
</g>
<g>
</g>
<g>
</g>
<g>
</g>
<g>
</g>
<g>
</g>
<g>
</g>
<g>
</g>
<g>
</g>
<g>
</g>
<g>
</g>
<g>
</g>
<g>
</g>
<g>
</g>
</svg>
