<?xml version="1.0" encoding="iso-8859-1"?>
<!-- Generator: Adobe Illustrator 16.0.0, SVG Export Plug-In . SVG Version: 6.00 Build 0)  -->
<!DOCTYPE svg PUBLIC "-//W3C//DTD SVG 1.1//EN" "http://www.w3.org/Graphics/SVG/1.1/DTD/svg11.dtd">
<svg version="1.1" id="Capa_1" xmlns="http://www.w3.org/2000/svg" xmlns:xlink="http://www.w3.org/1999/xlink" x="0px" y="0px"
	 width="48px" height="48px" viewBox="0 0 48 48" style="enable-background:new 0 0 48 48;" xml:space="preserve">
<g>
	<g>
		<g>
			<polygon points="13.035,35.996 23.103,42.687 23.103,11.771 13.035,5.08 			"/>
			<polygon points="25.104,42.644 35.105,35.996 35.105,5.08 25.104,11.729 			"/>
			<path d="M47.167,11.861L37.104,5.171v30.916l10.063,6.689C47.627,43.083,48,42.882,48,42.331V13.415
				C48,12.862,47.627,12.167,47.167,11.861z"/>
			<path d="M0,13.415v28.916c0,0.553,0.373,0.752,0.833,0.446l10.202-6.782V5.08L0.833,11.861C0.373,12.167,0,12.862,0,13.415z"/>
		</g>
	</g>
</g>
<g>
</g>
<g>
</g>
<g>
</g>
<g>
</g>
<g>
</g>
<g>
</g>
<g>
</g>
<g>
</g>
<g>
</g>
<g>
</g>
<g>
</g>
<g>
</g>
<g>
</g>
<g>
</g>
<g>
</g>
</svg>
