<?xml version="1.0" encoding="iso-8859-1"?>
<!-- Generator: Adobe Illustrator 16.0.0, SVG Export Plug-In . SVG Version: 6.00 Build 0)  -->
<!DOCTYPE svg PUBLIC "-//W3C//DTD SVG 1.1//EN" "http://www.w3.org/Graphics/SVG/1.1/DTD/svg11.dtd">
<svg version="1.1" id="Capa_1" xmlns="http://www.w3.org/2000/svg" xmlns:xlink="http://www.w3.org/1999/xlink" x="0px" y="0px"
	 width="49.655px" height="49.654px" viewBox="0 0 49.655 49.654" style="enable-background:new 0 0 49.655 49.654;"
	 xml:space="preserve">
<g>
	<g>
		<path d="M24.827,0C11.138,0,0,11.137,0,24.826c0,5.613,1.828,10.909,5.285,15.313c4.743,6.045,11.866,9.515,19.542,9.515
			c7.676,0,14.799-3.47,19.543-9.517c3.456-4.404,5.283-9.7,5.283-15.312C49.653,11.137,38.516,0,24.827,0z M34.352,23.37
			c-0.108-2.41-0.473-4.68-1.004-6.784c3.066-0.744,5.701-1.81,7.858-2.912c1.914,2.802,3.111,6.12,3.373,9.696H34.352L34.352,23.37
			z M24.657,44.649c-0.07-0.001-0.139-0.006-0.208-0.008c-1.283-1.656-3.306-4.707-4.782-8.936c1.611-0.254,3.33-0.411,5.161-0.411
			c1.614,0,3.144,0.121,4.592,0.322C27.916,39.741,25.909,42.906,24.657,44.649z M24.827,32.296c-2.15,0-4.151,0.204-6.022,0.521
			c-0.488-1.96-0.833-4.112-0.94-6.448h13.495c-0.121,2.252-0.498,4.38-1.025,6.35C28.609,32.454,26.772,32.296,24.827,32.296z
			 M5.075,23.37c0.262-3.576,1.459-6.894,3.373-9.696c2.034,1.039,4.504,2.048,7.36,2.785c-0.499,2.106-0.834,4.414-0.932,6.912
			L5.075,23.37L5.075,23.37z M17.863,23.37c0.099-2.267,0.423-4.363,0.887-6.281c1.89,0.321,3.917,0.511,6.076,0.511
			c1.971,0,3.826-0.162,5.572-0.433c0.5,1.928,0.853,4.005,0.964,6.202L17.863,23.37L17.863,23.37z M24.664,5.008
			c1.276,1.773,3.334,5.021,4.845,9.258c-1.477,0.209-3.035,0.334-4.683,0.334c-1.853,0-3.597-0.154-5.233-0.414
			c1.482-4.338,3.552-7.473,4.856-9.167C24.521,5.018,24.591,5.009,24.664,5.008z M39.268,11.286
			c-1.896,0.923-4.158,1.796-6.76,2.415c-1.168-3.427-2.682-6.264-3.985-8.343C32.725,6.155,36.453,8.284,39.268,11.286z
			 M20.423,5.51c-1.284,2.001-2.711,4.708-3.809,8.06c-2.382-0.609-4.466-1.426-6.23-2.284C13.042,8.454,16.509,6.402,20.423,5.51z
			 M5.063,26.37h9.814c0.107,2.562,0.465,4.925,0.99,7.073c-2.907,0.746-5.359,1.746-7.289,2.723
			C6.537,33.253,5.333,29.913,5.063,26.37z M10.519,38.545c1.685-0.808,3.77-1.606,6.172-2.218c1.091,3.254,2.49,5.883,3.747,7.839
			C16.664,43.318,13.228,41.379,10.519,38.545z M28.516,44.307c1.276-2.032,2.757-4.795,3.916-8.129
			c2.588,0.61,4.832,1.473,6.701,2.369C36.258,41.553,32.563,43.549,28.516,44.307z M41.079,36.16
			c-2.122-1.072-4.732-2.126-7.788-2.861c0.556-2.144,0.938-4.463,1.058-6.929H44.59C44.321,29.91,43.118,33.249,41.079,36.16z"/>
	</g>
</g>
<g>
</g>
<g>
</g>
<g>
</g>
<g>
</g>
<g>
</g>
<g>
</g>
<g>
</g>
<g>
</g>
<g>
</g>
<g>
</g>
<g>
</g>
<g>
</g>
<g>
</g>
<g>
</g>
<g>
</g>
</svg>
