<?xml version="1.0" encoding="iso-8859-1"?>
<!-- Generator: Adobe Illustrator 16.0.0, SVG Export Plug-In . SVG Version: 6.00 Build 0)  -->
<!DOCTYPE svg PUBLIC "-//W3C//DTD SVG 1.1//EN" "http://www.w3.org/Graphics/SVG/1.1/DTD/svg11.dtd">
<svg version="1.1" id="Capa_1" xmlns="http://www.w3.org/2000/svg" xmlns:xlink="http://www.w3.org/1999/xlink" x="0px" y="0px"
	 width="47.757px" height="47.756px" viewBox="0 0 47.757 47.756" style="enable-background:new 0 0 47.757 47.756;"
	 xml:space="preserve">
<g>
	<g>
		<g>
			<path d="M27.682,13.588c-2.881,0-5.59,1.145-7.63,3.226l-0.973,0.993l-0.975-0.993c-2.038-2.081-4.748-3.226-7.628-3.226
				c-2.819,0-5.454,1.104-7.421,3.109c-4.116,4.199-4.067,11.086,0.114,15.348l14.915,15.214c0.275,0.279,0.635,0.419,0.997,0.419
				c0.36,0,0.719-0.14,0.995-0.419l14.917-15.214c4.179-4.264,4.228-11.148,0.107-15.348C33.134,14.693,30.5,13.588,27.682,13.588z
				 M11.757,19.98c-2.867,0-5.2,2.333-5.2,5.2c0,0.66-0.535,1.196-1.196,1.196c-0.661,0-1.196-0.536-1.196-1.196
				c0-4.186,3.405-7.59,7.591-7.59c0.661,0,1.196,0.535,1.196,1.196S12.418,19.98,11.757,19.98z"/>
			<path d="M44.788,3.101c-1.91-1.947-4.471-3.021-7.208-3.021c-2.8,0-5.432,1.113-7.412,3.134l-0.946,0.965l-0.945-0.966
				c-1.979-2.021-4.613-3.134-7.412-3.134c-2.739,0-5.299,1.074-7.21,3.021c-2.264,2.309-3.229,5.455-2.905,8.501
				c1.462,0.031,2.883,0.306,4.217,0.814c-0.677-2.248-0.167-4.769,1.543-6.513c1.154-1.176,2.701-1.823,4.355-1.823
				c1.715,0,3.333,0.687,4.554,1.933l0.945,0.966l2.858,2.918l2.857-2.919l0.941-0.963c1.225-1.247,2.842-1.934,4.558-1.934
				c1.653,0,3.199,0.647,4.352,1.822c2.487,2.536,2.439,6.712-0.106,9.309l-3.089,3.151c0.706,1.376,1.138,2.86,1.313,4.373
				l4.631-4.723C48.74,13.869,48.789,7.181,44.788,3.101z"/>
		</g>
	</g>
</g>
<g>
</g>
<g>
</g>
<g>
</g>
<g>
</g>
<g>
</g>
<g>
</g>
<g>
</g>
<g>
</g>
<g>
</g>
<g>
</g>
<g>
</g>
<g>
</g>
<g>
</g>
<g>
</g>
<g>
</g>
</svg>
