<?xml version="1.0" encoding="iso-8859-1"?>
<!-- Generator: Adobe Illustrator 16.0.0, SVG Export Plug-In . SVG Version: 6.00 Build 0)  -->
<!DOCTYPE svg PUBLIC "-//W3C//DTD SVG 1.1//EN" "http://www.w3.org/Graphics/SVG/1.1/DTD/svg11.dtd">
<svg version="1.1" id="Capa_1" xmlns="http://www.w3.org/2000/svg" xmlns:xlink="http://www.w3.org/1999/xlink" x="0px" y="0px"
	 width="50.508px" height="50.508px" viewBox="0 0 50.508 50.508" style="enable-background:new 0 0 50.508 50.508;"
	 xml:space="preserve">
<g>
	<g>
		<g>
			<path d="M33.255,29.508c0,3.299-2.673,5.971-5.97,5.971h-4.061c-3.297,0-5.97-2.672-5.97-5.971h-16v17c0,2.209,1.791,4,4,4h40
				c2.209,0,4-1.791,4-4v-17H33.255z"/>
			<path d="M25.17,26.5l7.607-7.452c0.747-0.733,0.506-1.327-0.543-1.327H27.67V2.5c0-1.381-1.119-2.5-2.5-2.5s-2.5,1.119-2.5,2.5
				v15.221h-4.565c-1.05,0-1.291,0.595-0.542,1.327L25.17,26.5z"/>
		</g>
	</g>
</g>
<g>
</g>
<g>
</g>
<g>
</g>
<g>
</g>
<g>
</g>
<g>
</g>
<g>
</g>
<g>
</g>
<g>
</g>
<g>
</g>
<g>
</g>
<g>
</g>
<g>
</g>
<g>
</g>
<g>
</g>
</svg>
