<?xml version="1.0" encoding="iso-8859-1"?>
<!-- Generator: Adobe Illustrator 16.0.0, SVG Export Plug-In . SVG Version: 6.00 Build 0)  -->
<!DOCTYPE svg PUBLIC "-//W3C//DTD SVG 1.1//EN" "http://www.w3.org/Graphics/SVG/1.1/DTD/svg11.dtd">
<svg version="1.1" id="Capa_1" xmlns="http://www.w3.org/2000/svg" xmlns:xlink="http://www.w3.org/1999/xlink" x="0px" y="0px"
	 width="48px" height="47.999px" viewBox="0 0 48 47.999" style="enable-background:new 0 0 48 47.999;" xml:space="preserve">
<g>
	<g>
		<g>
			<path d="M45.331,12.819L41,9.123H7l-4.331,3.696C2.299,13.229,2,14.009,2,14.562v28c0,0.552,0.3,1.331,0.669,1.741l2.661,2.953
				c0.37,0.41,1.118,0.742,1.67,0.742h34c0.552,0,1.3-0.333,1.669-0.743l2.661-2.952c0.37-0.41,0.67-1.189,0.67-1.741v-28
				C46,14.009,45.7,13.229,45.331,12.819z M8.475,13.123h31.05L42,15.235v9.808H6v-9.808L8.475,13.123z"/>
			<path d="M40.912,1c0-0.552-0.448-1-1-1h-32c-0.552,0-1,0.448-1,1v5.727h34V1z"/>
		</g>
	</g>
</g>
<g>
</g>
<g>
</g>
<g>
</g>
<g>
</g>
<g>
</g>
<g>
</g>
<g>
</g>
<g>
</g>
<g>
</g>
<g>
</g>
<g>
</g>
<g>
</g>
<g>
</g>
<g>
</g>
<g>
</g>
</svg>
