<?xml version="1.0" encoding="iso-8859-1"?>
<!-- Generator: Adobe Illustrator 16.0.0, SVG Export Plug-In . SVG Version: 6.00 Build 0)  -->
<!DOCTYPE svg PUBLIC "-//W3C//DTD SVG 1.1//EN" "http://www.w3.org/Graphics/SVG/1.1/DTD/svg11.dtd">
<svg version="1.1" id="Capa_1" xmlns="http://www.w3.org/2000/svg" xmlns:xlink="http://www.w3.org/1999/xlink" x="0px" y="0px"
	 width="53.706px" height="53.706px" viewBox="0 0 53.706 53.706" style="enable-background:new 0 0 53.706 53.706;"
	 xml:space="preserve">
<g>
	<g>
		<g>
			<path d="M5.881,40.27h41.943c1.658,0,2.996-1.342,2.996-2.996V7.313c0-2.206-1.787-3.994-3.992-3.994H6.879
				c-2.206,0-3.993,1.788-3.993,3.994v29.96C2.886,38.928,4.228,40.27,5.881,40.27z M7.886,8.319H45.82v26.95H7.886V8.319z"/>
			<path d="M52.707,42.105H1c-0.553,0-1,0.447-1,1c0,0.974,0,2.479,0,3.701c0,1.979,2.009,3.58,4.486,3.58h44.735
				c2.478,0,4.485-1.604,4.485-3.58v-3.701C53.707,42.553,53.259,42.105,52.707,42.105z M33.091,47.247H20.614c-0.552,0-1-0.446-1-1
				s0.448-1,1-1h12.477c0.554,0,1,0.446,1,1C34.091,46.8,33.645,47.247,33.091,47.247z"/>
		</g>
	</g>
</g>
<g>
</g>
<g>
</g>
<g>
</g>
<g>
</g>
<g>
</g>
<g>
</g>
<g>
</g>
<g>
</g>
<g>
</g>
<g>
</g>
<g>
</g>
<g>
</g>
<g>
</g>
<g>
</g>
<g>
</g>
</svg>
