<?xml version="1.0" encoding="iso-8859-1"?>
<!-- Generator: Adobe Illustrator 16.0.0, SVG Export Plug-In . SVG Version: 6.00 Build 0)  -->
<!DOCTYPE svg PUBLIC "-//W3C//DTD SVG 1.1//EN" "http://www.w3.org/Graphics/SVG/1.1/DTD/svg11.dtd">
<svg version="1.1" id="Capa_1" xmlns="http://www.w3.org/2000/svg" xmlns:xlink="http://www.w3.org/1999/xlink" x="0px" y="0px"
	 width="47.286px" height="47.286px" viewBox="0 0 47.286 47.286" style="enable-background:new 0 0 47.286 47.286;"
	 xml:space="preserve">
<g>
	<g>
		<g>
			<path d="M16.673,43.197c0,2.258,1.872,4.089,4.182,4.089h5.576c2.312,0,4.184-1.831,4.184-4.089v-1.922h-13.94v1.922H16.673z"/>
			<path d="M35.847,23.071c1.789-2.493,2.735-5.405,2.735-8.422C38.582,6.571,31.88,0,23.643,0C15.405,0,8.704,6.572,8.704,14.649
				c0,2.87,0.858,5.655,2.484,8.062c0.075,0.136,0.152,0.26,0.225,0.354c2.772,3.87,3.329,5.135,3.329,5.921v2.8h-0.743
				c-0.689,0-1.245,0.261-1.245,1.085v5.33c0,0.824,0.557,1.248,1.245,1.248h19.289c0.689,0,1.245-0.424,1.245-1.248v-5.33
				c0-0.824-0.558-1.085-1.245-1.085h-0.745v-2.8C32.543,28.325,32.798,27.324,35.847,23.071z"/>
		</g>
	</g>
</g>
<g>
</g>
<g>
</g>
<g>
</g>
<g>
</g>
<g>
</g>
<g>
</g>
<g>
</g>
<g>
</g>
<g>
</g>
<g>
</g>
<g>
</g>
<g>
</g>
<g>
</g>
<g>
</g>
<g>
</g>
</svg>
