<?xml version="1.0" encoding="iso-8859-1"?>
<!-- Generator: Adobe Illustrator 16.0.0, SVG Export Plug-In . SVG Version: 6.00 Build 0)  -->
<!DOCTYPE svg PUBLIC "-//W3C//DTD SVG 1.1//EN" "http://www.w3.org/Graphics/SVG/1.1/DTD/svg11.dtd">
<svg version="1.1" id="Capa_1" xmlns="http://www.w3.org/2000/svg" xmlns:xlink="http://www.w3.org/1999/xlink" x="0px" y="0px"
	 width="48px" height="48px" viewBox="0 0 48 48" style="enable-background:new 0 0 48 48;" xml:space="preserve">
<g>
	<g>
		<g>
			<path d="M24.021,14.825c-5.886,0-10.66,4.771-10.66,10.656c0,5.886,4.773,10.656,10.66,10.656
				c5.885,0,10.657-4.771,10.657-10.656C34.68,19.596,29.906,14.825,24.021,14.825z M24.021,31.376
				c-3.309,0-5.986-2.677-5.986-5.984c0-3.307,2.68-5.983,5.986-5.983c3.306,0,5.984,2.677,5.984,5.983
				C30.008,28.701,27.328,31.376,24.021,31.376z"/>
			<path d="M40,7.481h-5.451l-2.072-2.255c-0.356-0.391-1.06-0.707-1.565-0.707H17.134c-0.508,0-1.21,0.316-1.567,0.707
				l-2.071,2.255H9.529V6.186c0-0.368-0.298-0.667-0.667-0.667H4.69c-0.369,0-0.667,0.299-0.667,0.667v1.295H2c-1.105,0-2,0.896-2,2
				v2v28c0,2.209,1.791,4,4,4h40c2.209,0,4-1.791,4-4v-24C48,11.063,44.418,7.481,40,7.481z M43,38.481H5v-26h35
				c1.654,0,3,1.346,3,3V38.481z"/>
			<circle cx="9.527" cy="16.874" r="1.982"/>
			<circle cx="24.021" cy="25.392" r="2.985"/>
		</g>
	</g>
</g>
<g>
</g>
<g>
</g>
<g>
</g>
<g>
</g>
<g>
</g>
<g>
</g>
<g>
</g>
<g>
</g>
<g>
</g>
<g>
</g>
<g>
</g>
<g>
</g>
<g>
</g>
<g>
</g>
<g>
</g>
</svg>
