<?xml version="1.0" encoding="iso-8859-1"?>
<!-- Generator: Adobe Illustrator 16.0.0, SVG Export Plug-In . SVG Version: 6.00 Build 0)  -->
<!DOCTYPE svg PUBLIC "-//W3C//DTD SVG 1.1//EN" "http://www.w3.org/Graphics/SVG/1.1/DTD/svg11.dtd">
<svg version="1.1" id="Capa_1" xmlns="http://www.w3.org/2000/svg" xmlns:xlink="http://www.w3.org/1999/xlink" x="0px" y="0px"
	 width="54.65px" height="54.65px" viewBox="0 0 54.65 54.65" style="enable-background:new 0 0 54.65 54.65;" xml:space="preserve"
	>
<g>
	<g>
		<g>
			<path d="M24.138,5.009h6.373c0.44,0,0.798-0.447,0.798-1V1.444C31.309,0.339,30.595,0,29.714,0h-4.779
				c-0.88,0-1.594,0.34-1.594,1.444v2.564C23.342,4.561,23.698,5.009,24.138,5.009z"/>
			<path d="M33.308,3.102v0.906c0,1.654-1.255,3-2.798,3h-6.373c-1.542,0-2.797-1.346-2.797-3V3.102H7.325v1v35.396
				c0,2.209,1.791,4,4,4h10.911l-7.523,6.865c-0.816,0.745-0.874,2.01-0.129,2.826c0.395,0.432,0.936,0.649,1.478,0.649
				c0.481,0,0.964-0.173,1.348-0.521l7.915-7.224v6.556c0,1.104,0.896,2,2,2c1.104,0,2-0.896,2-2v-6.873l8.221,7.543
				c0.817,0.745,2.082,0.684,2.824-0.136c0.743-0.814,0.684-2.082-0.134-2.823l-7.485-6.862h10.574c2.209,0,4-1.791,4-4V4.102v-1
				H33.308L33.308,3.102z M43.325,39.499h-32V13.006h32V39.499z"/>
		</g>
	</g>
</g>
<g>
</g>
<g>
</g>
<g>
</g>
<g>
</g>
<g>
</g>
<g>
</g>
<g>
</g>
<g>
</g>
<g>
</g>
<g>
</g>
<g>
</g>
<g>
</g>
<g>
</g>
<g>
</g>
<g>
</g>
</svg>
