<?xml version="1.0" encoding="iso-8859-1"?>
<!-- Generator: Adobe Illustrator 16.0.0, SVG Export Plug-In . SVG Version: 6.00 Build 0)  -->
<!DOCTYPE svg PUBLIC "-//W3C//DTD SVG 1.1//EN" "http://www.w3.org/Graphics/SVG/1.1/DTD/svg11.dtd">
<svg version="1.1" id="Capa_1" xmlns="http://www.w3.org/2000/svg" xmlns:xlink="http://www.w3.org/1999/xlink" x="0px" y="0px"
	 width="51.5px" height="51.5px" viewBox="0 0 51.5 51.5" style="enable-background:new 0 0 51.5 51.5;" xml:space="preserve">
<g>
	<g>
		<path d="M49.5,9.975H38.548c1.095-1.756,1.293-4.02,0.313-6.009c-1.05-2.129-3.175-3.452-5.552-3.452
			c-0.95,0-1.868,0.214-2.728,0.637c-2.084,1.027-3.706,3.024-4.835,4.838c-1.129-1.815-2.75-3.812-4.835-4.839
			c-0.858-0.422-1.775-0.636-2.727-0.636c-2.375,0-4.502,1.323-5.55,3.451c-0.98,1.99-0.782,4.253,0.314,6.01H2c-1.1,0-2,0.9-2,2
			v10.374c0,1.1,0.9,2,2,2h0.546v8.565v4v10.217c0,2.131,1.727,3.855,3.856,3.855h38.696c2.129,0,3.856-1.728,3.856-3.855V24.349
			H49.5c1.1,0,2-0.9,2-2V11.975C51.5,10.875,50.6,9.975,49.5,9.975z M32.352,4.739c1.066-0.525,2.405-0.057,2.923,0.994
			c0.532,1.081,0.086,2.393-0.992,2.924c-0.828,0.407-1.902,0.614-3.195,0.614c-0.566,0-1.109-0.048-1.631-0.109
			c-0.096-0.321-0.226-0.625-0.396-0.905C29.922,6.837,31.068,5.371,32.352,4.739z M16.226,5.731
			c0.37-0.751,1.121-1.218,1.961-1.218c0.334,0,0.658,0.076,0.96,0.225c1.283,0.632,2.429,2.099,3.291,3.517
			c-0.17,0.281-0.299,0.584-0.394,0.906c-0.522,0.062-1.064,0.109-1.63,0.109c-1.292,0-2.368-0.207-3.194-0.613
			C16.14,8.125,15.694,6.812,16.226,5.731z M23.834,45.987H7.546v-9.074h16.288V45.987z M7.546,32.912v-8.564h16.288v8.564H7.546z
			 M43.954,45.987H27.666v-9.074h16.288V45.987z M43.954,32.912H27.666v-8.564h16.288V32.912z"/>
	</g>
</g>
<g>
</g>
<g>
</g>
<g>
</g>
<g>
</g>
<g>
</g>
<g>
</g>
<g>
</g>
<g>
</g>
<g>
</g>
<g>
</g>
<g>
</g>
<g>
</g>
<g>
</g>
<g>
</g>
<g>
</g>
</svg>
