<?xml version="1.0" encoding="iso-8859-1"?>
<!-- Generator: Adobe Illustrator 16.0.0, SVG Export Plug-In . SVG Version: 6.00 Build 0)  -->
<!DOCTYPE svg PUBLIC "-//W3C//DTD SVG 1.1//EN" "http://www.w3.org/Graphics/SVG/1.1/DTD/svg11.dtd">
<svg version="1.1" id="Capa_1" xmlns="http://www.w3.org/2000/svg" xmlns:xlink="http://www.w3.org/1999/xlink" x="0px" y="0px"
	 width="51.349px" height="51.35px" viewBox="0 0 51.349 51.35" style="enable-background:new 0 0 51.349 51.35;"
	 xml:space="preserve">
<g>
	<g>
		<g>
			<path d="M25.541,28.998c5.834,0,10.964-4.742,10.563-10.564c-0.198-2.894-0.921-4.828-1.847-6.322
				c-1.588,2.502-4.014,3.828-4.014,3.828C32.335,9.892,20.399,5.977,28.607,0c-0.177,0.097-2.159,1.197-4.569,3.12
				c-5.529,5.402,3.384,7.865-1.288,14.31c0,0-2.474-2.017-3.039-4.47c-0.525-2.285-0.139-4.476-0.139-4.476
				s-1.559,0.783-2.509,2.476c-1.253,2.228-2.088,4.74-2.088,7.475C14.974,24.268,19.703,28.998,25.541,28.998z"/>
			<path d="M42.398,31.046H8.95c-1.456,0-2.636,1.075-2.636,2.401c0,0.676,0,3.719,0,3.719h1.105h1.105
				c2.157,8.193,8.957,14.184,17.027,14.184c8.069,0,14.871-5.989,17.026-14.184h1.229h1.229v-3.719
				C45.035,32.121,43.855,31.046,42.398,31.046z"/>
		</g>
	</g>
</g>
<g>
</g>
<g>
</g>
<g>
</g>
<g>
</g>
<g>
</g>
<g>
</g>
<g>
</g>
<g>
</g>
<g>
</g>
<g>
</g>
<g>
</g>
<g>
</g>
<g>
</g>
<g>
</g>
<g>
</g>
</svg>
