<?xml version="1.0" encoding="iso-8859-1"?>
<!-- Generator: Adobe Illustrator 16.0.0, SVG Export Plug-In . SVG Version: 6.00 Build 0)  -->
<!DOCTYPE svg PUBLIC "-//W3C//DTD SVG 1.1//EN" "http://www.w3.org/Graphics/SVG/1.1/DTD/svg11.dtd">
<svg version="1.1" id="Capa_1" xmlns="http://www.w3.org/2000/svg" xmlns:xlink="http://www.w3.org/1999/xlink" x="0px" y="0px"
	 width="48.015px" height="48.015px" viewBox="0 0 48.015 48.015" style="enable-background:new 0 0 48.015 48.015;"
	 xml:space="preserve">
<g>
	<g>
		<path d="M15.734,8.41v4.84v5.058v14.236c-1.268-0.777-2.754-1.233-4.35-1.233c-4.612,0-8.353,3.74-8.353,8.351
			c0,4.613,3.74,8.354,8.353,8.354c4.61,0,8.349-3.737,8.35-8.352l0,0V17.159l21.25-6.109v14.288
			c-1.269-0.777-2.754-1.233-4.351-1.233c-4.613,0-8.354,3.739-8.354,8.347c0,4.613,3.739,8.354,8.354,8.354
			c4.345,0,7.914-3.324,8.311-7.568h0.04V9.9V6.314V0L15.734,8.41z"/>
	</g>
</g>
<g>
</g>
<g>
</g>
<g>
</g>
<g>
</g>
<g>
</g>
<g>
</g>
<g>
</g>
<g>
</g>
<g>
</g>
<g>
</g>
<g>
</g>
<g>
</g>
<g>
</g>
<g>
</g>
<g>
</g>
</svg>
