<?xml version="1.0" encoding="iso-8859-1"?>
<!-- Generator: Adobe Illustrator 16.0.0, SVG Export Plug-In . SVG Version: 6.00 Build 0)  -->
<!DOCTYPE svg PUBLIC "-//W3C//DTD SVG 1.1//EN" "http://www.w3.org/Graphics/SVG/1.1/DTD/svg11.dtd">
<svg version="1.1" id="Capa_1" xmlns="http://www.w3.org/2000/svg" xmlns:xlink="http://www.w3.org/1999/xlink" x="0px" y="0px"
	 width="52.112px" height="52.111px" viewBox="0 0 52.112 52.111" style="enable-background:new 0 0 52.112 52.111;"
	 xml:space="preserve">
<g>
	<g>
		<path d="M48.283,6.665c-0.338-0.336-0.735-0.505-1.196-0.505c-0.229,0-0.712,0.188-1.444,0.559
			c-0.735,0.372-1.517,0.786-2.337,1.248c-0.823,0.459-1.797,0.875-2.922,1.247c-1.123,0.371-2.162,0.559-3.119,0.559
			c-0.885,0-1.663-0.168-2.336-0.505C32.7,8.224,30.76,7.445,29.115,6.931c-1.646-0.513-3.416-0.771-5.311-0.771
			c-3.272,0-6.999,1.064-11.177,3.188c-0.862,0.43-1.48,0.763-1.88,1.007L10.35,7.444c0.897-0.779,1.476-1.914,1.476-3.195
			C11.826,1.902,9.924,0,7.577,0s-4.25,1.902-4.25,4.249c0,1.531,0.818,2.862,2.032,3.61l5.74,42.09
			c0.171,1.253,1.243,2.162,2.474,2.162c0.112,0,0.226-0.009,0.341-0.021c1.368-0.188,2.326-1.447,2.139-2.815l-2.307-16.916
			c4.186-2.077,7.807-3.124,10.853-3.124c1.293,0,2.554,0.191,3.783,0.583c1.23,0.391,2.254,0.813,3.067,1.272
			c0.812,0.461,1.773,0.887,2.88,1.274c1.107,0.39,2.2,0.585,3.279,0.585c2.726,0,5.989-1.027,9.796-3.08
			c0.478-0.248,0.827-0.492,1.049-0.73c0.222-0.239,0.332-0.58,0.332-1.021V7.86C48.785,7.401,48.618,7.002,48.283,6.665z"/>
	</g>
</g>
<g>
</g>
<g>
</g>
<g>
</g>
<g>
</g>
<g>
</g>
<g>
</g>
<g>
</g>
<g>
</g>
<g>
</g>
<g>
</g>
<g>
</g>
<g>
</g>
<g>
</g>
<g>
</g>
<g>
</g>
</svg>
