<?xml version="1.0" encoding="iso-8859-1"?>
<!-- Generator: Adobe Illustrator 16.0.0, SVG Export Plug-In . SVG Version: 6.00 Build 0)  -->
<!DOCTYPE svg PUBLIC "-//W3C//DTD SVG 1.1//EN" "http://www.w3.org/Graphics/SVG/1.1/DTD/svg11.dtd">
<svg version="1.1" id="Capa_1" xmlns="http://www.w3.org/2000/svg" xmlns:xlink="http://www.w3.org/1999/xlink" x="0px" y="0px"
	 width="52.635px" height="52.635px" viewBox="0 0 52.635 52.635" style="enable-background:new 0 0 52.635 52.635;"
	 xml:space="preserve">
<g>
	<g>
		<g>
			<path d="M32.818,2.008c-10.944,0-19.815,8.871-19.815,19.816c0,10.86,8.736,19.673,19.562,19.809v8.43l13.541-13.539
				c4.01-3.625,6.528-8.868,6.528-14.7C52.633,10.879,43.761,2.008,32.818,2.008z"/>
			<path d="M16.199,40.972v-2.405l-1.975-0.022C8.586,38.474,4,33.829,4,28.189c0-4.645,3.073-8.583,7.292-9.894
				c0.245-1.498,0.644-2.945,1.179-4.325C5.445,14.898,0,20.913,0,28.189c0,7.146,5.315,13.142,12.199,14.189v8.248l9.871-9.871
				c-1.181-0.676-2.292-1.456-3.323-2.332L16.199,40.972z"/>
		</g>
	</g>
</g>
<g>
</g>
<g>
</g>
<g>
</g>
<g>
</g>
<g>
</g>
<g>
</g>
<g>
</g>
<g>
</g>
<g>
</g>
<g>
</g>
<g>
</g>
<g>
</g>
<g>
</g>
<g>
</g>
<g>
</g>
</svg>
