<?xml version="1.0" encoding="iso-8859-1"?>
<!-- Generator: Adobe Illustrator 16.0.0, SVG Export Plug-In . SVG Version: 6.00 Build 0)  -->
<!DOCTYPE svg PUBLIC "-//W3C//DTD SVG 1.1//EN" "http://www.w3.org/Graphics/SVG/1.1/DTD/svg11.dtd">
<svg version="1.1" id="Capa_1" xmlns="http://www.w3.org/2000/svg" xmlns:xlink="http://www.w3.org/1999/xlink" x="0px" y="0px"
	 width="47.926px" height="47.926px" viewBox="0 0 47.926 47.926" style="enable-background:new 0 0 47.926 47.926;"
	 xml:space="preserve">
<g>
	<g>
		<g>
			<path d="M39.928,0.09H8c-4.4,0-8,3.6-8,8v20.977c0,4.4,3.6,8,8,8h7.397v10.77l13.333-10.77h11.195c4.399,0,8-3.6,8-8V8.09
				C47.928,3.69,44.328,0.09,39.928,0.09z M42.928,29.066c0,1.627-1.374,3-3,3H28.73h-1.768l-1.375,1.11l-5.191,4.193v-0.305v-5h-5
				H8c-1.626,0-3-1.373-3-3V8.09c0-1.626,1.374-3,3-3h31.928c1.626,0,3,1.374,3,3V29.066L42.928,29.066z"/>
			<circle cx="13.707" cy="18.58" r="2.913"/>
			<circle cx="23.964" cy="18.58" r="2.913"/>
			<circle cx="34.22" cy="18.58" r="2.913"/>
		</g>
	</g>
</g>
<g>
</g>
<g>
</g>
<g>
</g>
<g>
</g>
<g>
</g>
<g>
</g>
<g>
</g>
<g>
</g>
<g>
</g>
<g>
</g>
<g>
</g>
<g>
</g>
<g>
</g>
<g>
</g>
<g>
</g>
</svg>
