<?xml version="1.0" encoding="iso-8859-1"?>
<!-- Generator: Adobe Illustrator 16.0.0, SVG Export Plug-In . SVG Version: 6.00 Build 0)  -->
<!DOCTYPE svg PUBLIC "-//W3C//DTD SVG 1.1//EN" "http://www.w3.org/Graphics/SVG/1.1/DTD/svg11.dtd">
<svg version="1.1" id="Capa_1" xmlns="http://www.w3.org/2000/svg" xmlns:xlink="http://www.w3.org/1999/xlink" x="0px" y="0px"
	 width="47.854px" height="47.854px" viewBox="0 0 47.854 47.854" style="enable-background:new 0 0 47.854 47.854;"
	 xml:space="preserve">
<g>
	<g>
		<g>
			<path d="M33.81,19.744c0,0-1.479-1.715-2.495-1.715H30.47V14.08c0-1.104-0.896-2-2-2c-1.104,0-2,0.896-2,2v3.949h-5.085V14.08
				c0-1.104-0.896-2-2-2s-2,0.896-2,2v3.949h-0.847c-1.016,0-2.494,1.715-2.494,1.715L3.103,29.96
				c-0.419,0.392-0.76,1.106-0.76,1.598v0.889v11.734c0,2.028,1.646,3.673,3.674,3.673h35.823c2.028,0,3.673-1.645,3.673-3.673
				V32.446c0,0,0-0.396,0-0.889c0-0.488-0.341-1.206-0.76-1.598L33.81,19.744z M40.512,42.854H7.342V32.842l10.114-9.443
				l0.177-0.161l0.177-0.205c0.001-0.001,0.002-0.002,0.003-0.004H30.04l0.16,0.185l0.196,0.184l10.114,9.443L40.512,42.854
				L40.512,42.854z"/>
			<path d="M32.054,0H15.8C7.517,0,0.799,6.718,0.799,15.003v2.004c0,0.565,0.458,1.022,1.024,1.022h9.211
				c1.381,0,2.501-1.118,2.501-2.5v-5.153c0-1.38,1.119-2.5,2.5-2.5h15.784c1.382,0,2.5,1.12,2.5,2.5v5.153
				c0,1.382,1.119,2.5,2.5,2.5h9.214c0.564,0,1.021-0.457,1.021-1.022v-2.004C47.055,6.718,40.339,0,32.054,0z"/>
			<path d="M23.927,25.564c-4.214,0-7.632,3.418-7.632,7.633s3.418,7.631,7.632,7.631c4.215,0,7.632-3.416,7.632-7.631
				S28.142,25.564,23.927,25.564z M23.927,35.06c-1.029,0-1.863-0.834-1.863-1.861c0-1.029,0.834-1.863,1.863-1.863
				c1.028,0,1.862,0.834,1.862,1.863C25.79,34.226,24.956,35.06,23.927,35.06z"/>
		</g>
	</g>
</g>
<g>
</g>
<g>
</g>
<g>
</g>
<g>
</g>
<g>
</g>
<g>
</g>
<g>
</g>
<g>
</g>
<g>
</g>
<g>
</g>
<g>
</g>
<g>
</g>
<g>
</g>
<g>
</g>
<g>
</g>
</svg>
