<?xml version="1.0" encoding="iso-8859-1"?>
<!-- Generator: Adobe Illustrator 16.0.0, SVG Export Plug-In . SVG Version: 6.00 Build 0)  -->
<!DOCTYPE svg PUBLIC "-//W3C//DTD SVG 1.1//EN" "http://www.w3.org/Graphics/SVG/1.1/DTD/svg11.dtd">
<svg version="1.1" id="Capa_1" xmlns="http://www.w3.org/2000/svg" xmlns:xlink="http://www.w3.org/1999/xlink" x="0px" y="0px"
	 width="47.733px" height="47.733px" viewBox="0 0 47.733 47.733" style="enable-background:new 0 0 47.733 47.733;"
	 xml:space="preserve">
<g>
	<g>
		<g>
			<path d="M20.508,4.277h6.834c0.659,0,1.198-0.54,1.198-1.199V1.199C28.54,0.54,28.001,0,27.342,0h-6.834
				c-0.659,0-1.199,0.54-1.199,1.199v1.879C19.308,3.737,19.848,4.277,20.508,4.277z"/>
			<path d="M23.867,5.837c-5.797,0-11.049,2.369-14.846,6.188l4.554,3.288c2.745-2.479,6.368-4.003,10.35-4.003
				c8.533,0,15.475,6.942,15.475,15.475S32.459,42.26,23.925,42.26c-8.534,0-15.475-6.939-15.475-15.475
				c0-3.775,1.362-7.235,3.617-9.924l-3.42-4.423c-3.539,3.753-5.726,8.794-5.726,14.347c0,11.551,9.396,20.948,20.946,20.948
				c11.55,0,20.946-9.397,20.946-20.948C44.812,15.234,35.417,5.837,23.867,5.837z"/>
			<path d="M24.024,30.23c-1.06,0-1.994-0.509-2.602-1.283l-0.006,0.008l-7.569-9.789c-1.609,2.122-2.575,4.756-2.575,7.618
				c0,6.976,5.675,12.648,12.651,12.648c6.976,0,12.649-5.674,12.649-12.648c0-6.975-5.675-12.651-12.649-12.651
				c-3.037,0-5.827,1.077-8.01,2.868l9.817,7.089l-0.006,0.008c0.961,0.578,1.609,1.621,1.609,2.824
				C27.336,28.748,25.854,30.23,24.024,30.23z"/>
		</g>
	</g>
</g>
<g>
</g>
<g>
</g>
<g>
</g>
<g>
</g>
<g>
</g>
<g>
</g>
<g>
</g>
<g>
</g>
<g>
</g>
<g>
</g>
<g>
</g>
<g>
</g>
<g>
</g>
<g>
</g>
<g>
</g>
</svg>
