<?xml version="1.0" encoding="iso-8859-1"?>
<!-- Generator: Adobe Illustrator 16.0.0, SVG Export Plug-In . SVG Version: 6.00 Build 0)  -->
<!DOCTYPE svg PUBLIC "-//W3C//DTD SVG 1.1//EN" "http://www.w3.org/Graphics/SVG/1.1/DTD/svg11.dtd">
<svg version="1.1" id="Capa_1" xmlns="http://www.w3.org/2000/svg" xmlns:xlink="http://www.w3.org/1999/xlink" x="0px" y="0px"
	 width="50.691px" height="50.691px" viewBox="0 0 50.691 50.691" style="enable-background:new 0 0 50.691 50.691;"
	 xml:space="preserve">
<g>
	<g>
		<g>
			<path d="M11.503,34.554c-2.756,0-4.988,2.234-4.988,4.99s2.232,4.988,4.988,4.988c2.757,0,4.989-2.232,4.989-4.988
				S14.26,34.554,11.503,34.554z M11.503,41.202c-0.914,0-1.657-0.742-1.657-1.656c0-0.918,0.743-1.66,1.657-1.66
				c0.917,0,1.66,0.742,1.66,1.66C13.163,40.46,12.42,41.202,11.503,41.202z"/>
			<path d="M39.523,34.554c-2.755,0-4.987,2.234-4.987,4.99s2.232,4.988,4.987,4.988c2.758,0,4.989-2.232,4.989-4.988
				S42.281,34.554,39.523,34.554z M39.523,41.202c-0.914,0-1.657-0.742-1.657-1.656c0-0.918,0.743-1.66,1.657-1.66
				c0.916,0,1.659,0.742,1.659,1.66C41.184,40.46,40.439,41.202,39.523,41.202z"/>
			<path d="M49.694,33.944h-0.344V21.555c0-0.565-0.275-1.387-0.616-1.836l-5.667-7.451c-0.344-0.448-1.077-0.813-1.645-0.813
				h-9.211V7.182c0-0.566-0.457-1.023-1.022-1.023H5.626c-2.261,0-4.092,1.831-4.092,4.091v23.694H1c-0.552,0-1,0.447-1,1v3.576
				c0,0.563,0.458,1.022,1.022,1.022h3.492c0-3.854,3.135-6.987,6.988-6.987c3.854,0,6.989,3.135,6.989,6.987h14.044
				c0-3.854,3.135-6.987,6.988-6.987c3.853,0,6.987,3.135,6.987,6.987h3.157c0.566,0,1.023-0.459,1.023-1.022v-3.576
				C50.694,34.392,50.247,33.944,49.694,33.944z M34.809,21.301v-5.977h4.26c0.538,0,1.234,0.35,1.559,0.781l3.808,5.195
				L34.809,21.301L34.809,21.301z"/>
		</g>
	</g>
</g>
<g>
</g>
<g>
</g>
<g>
</g>
<g>
</g>
<g>
</g>
<g>
</g>
<g>
</g>
<g>
</g>
<g>
</g>
<g>
</g>
<g>
</g>
<g>
</g>
<g>
</g>
<g>
</g>
<g>
</g>
</svg>
