<?xml version="1.0" encoding="iso-8859-1"?>
<!-- Generator: Adobe Illustrator 16.0.0, SVG Export Plug-In . SVG Version: 6.00 Build 0)  -->
<!DOCTYPE svg PUBLIC "-//W3C//DTD SVG 1.1//EN" "http://www.w3.org/Graphics/SVG/1.1/DTD/svg11.dtd">
<svg version="1.1" id="Capa_1" xmlns="http://www.w3.org/2000/svg" xmlns:xlink="http://www.w3.org/1999/xlink" x="0px" y="0px"
	 width="49.652px" height="49.652px" viewBox="0 0 49.652 49.652" style="enable-background:new 0 0 49.652 49.652;"
	 xml:space="preserve">
<g>
	<g>
		<path d="M24.826,0C11.137,0,0,11.137,0,24.826c0,13.688,11.137,24.826,24.826,24.826c13.688,0,24.826-11.138,24.826-24.826
			C49.652,11.137,38.516,0,24.826,0z M33.219,36.659c-1.15,0.542-2.196,0.926-3.134,1.144c-0.936,0.217-1.944,0.328-3.032,0.328
			c-1.233,0-1.963-0.156-2.91-0.467c-0.949-0.313-1.758-0.76-2.427-1.333c-0.672-0.577-1.134-1.19-1.393-1.839
			c-0.259-0.65-0.389-1.593-0.389-2.828v-9.466h-3.668v-3.824c1.06-0.344,2.289-0.837,3.044-1.48
			c0.758-0.645,1.365-1.416,1.82-2.318c0.461-0.899,0.775-2.048,0.948-3.438h3.839v6.241h6.241v4.82h-6.241v6.92
			c0,1.565-0.021,2.471,0.146,2.914c0.166,0.44,0.578,0.899,1.027,1.164c0.601,0.358,1.28,0.538,2.049,0.538
			c1.367,0,2.728-0.443,4.078-1.332v4.256H33.219L33.219,36.659z"/>
	</g>
</g>
<g>
</g>
<g>
</g>
<g>
</g>
<g>
</g>
<g>
</g>
<g>
</g>
<g>
</g>
<g>
</g>
<g>
</g>
<g>
</g>
<g>
</g>
<g>
</g>
<g>
</g>
<g>
</g>
<g>
</g>
</svg>
