<?xml version="1.0" encoding="iso-8859-1"?>
<!-- Generator: Adobe Illustrator 16.0.0, SVG Export Plug-In . SVG Version: 6.00 Build 0)  -->
<!DOCTYPE svg PUBLIC "-//W3C//DTD SVG 1.1//EN" "http://www.w3.org/Graphics/SVG/1.1/DTD/svg11.dtd">
<svg version="1.1" id="Capa_1" xmlns="http://www.w3.org/2000/svg" xmlns:xlink="http://www.w3.org/1999/xlink" x="0px" y="0px"
	 width="48px" height="48px" viewBox="0 0 48 48" style="enable-background:new 0 0 48 48;" xml:space="preserve">
<g>
	<g>
		<g>
			<path d="M44,4.982H4c-2.2,0-4,1.8-4,4v30.036c0,2.2,1.8,4,4,4h40c2.2,0,4-1.8,4-4V8.982C48,6.782,46.2,4.982,44,4.982z
				 M20.204,12.789l9.593,6.55l-9.593,6.55V12.789z M40.001,35.212H18.875c-0.57,1.239-1.816,2.104-3.27,2.104
				s-2.699-0.866-3.27-2.104H8c-0.829,0-1.5-0.673-1.5-1.5c0-0.828,0.671-1.5,1.5-1.5h4.336c0.57-1.24,1.815-2.106,3.27-2.106
				s2.7,0.866,3.27,2.106h21.126c0.828,0,1.5,0.672,1.5,1.5C41.502,34.54,40.829,35.212,40.001,35.212z"/>
			<circle cx="15.605" cy="33.712" r="1.397"/>
		</g>
	</g>
</g>
<g>
</g>
<g>
</g>
<g>
</g>
<g>
</g>
<g>
</g>
<g>
</g>
<g>
</g>
<g>
</g>
<g>
</g>
<g>
</g>
<g>
</g>
<g>
</g>
<g>
</g>
<g>
</g>
<g>
</g>
</svg>
